<svg width="11" height="20" viewBox="0 0 11 20" fill="none" xmlns="http://www.w3.org/2000/svg">
<path fill-rule="evenodd" clip-rule="evenodd" d="M2 4C2 1.79086 3.79086 0 6 0H9C9.55229 0 10 0.447715 10 1V4C10 4.55228 9.55229 5 9 5H7V6H9.5C9.79395 6 10.073 6.12933 10.263 6.35363C10.453 6.57792 10.5347 6.87445 10.4864 7.1644L9.98639 10.1644C9.90603 10.6466 9.48884 11 9 11H7V19C7 19.5523 6.55228 20 6 20H3C2.44772 20 2 19.5523 2 19V11H1C0.447715 11 0 10.5523 0 10V7C0 6.44772 0.447715 6 1 6H2V4ZM2 8V9H3C3.55228 9 4 9.44771 4 10V18H5V10C5 9.44771 5.44772 9 6 9H8.15287L8.31954 8H6C5.44772 8 5 7.55228 5 7V4C5 3.44772 5.44772 3 6 3H8V2H6C4.89543 2 4 2.89543 4 4V7C4 7.55228 3.55228 8 3 8H2Z" fill="white"/>
</svg>
