<svg width="20" height="20" viewBox="0 0 20 20" fill="none" xmlns="http://www.w3.org/2000/svg">
<path fill-rule="evenodd" clip-rule="evenodd" d="M4 0C1.79086 0 0 1.79086 0 4V16C0 18.2091 1.79086 20 4 20H16C18.2091 20 20 18.2091 20 16V4C20 1.79086 18.2091 0 16 0H4ZM2 4C2 2.89543 2.89543 2 4 2H16C17.1046 2 18 2.89543 18 4V16C18 17.1046 17.1046 18 16 18H4C2.89543 18 2 17.1046 2 16V4ZM6.01344 15C5.38344 15 5 14.58 5 13.95V8.01C5 7.38 5.38344 7 6.01344 7C6.64344 7 7.01344 7.38 7.01344 8.01V14C7.01344 14.63 6.64344 15 6.01344 15ZM5.01172 5C5.01172 4.44772 5.45943 4 6.01172 4C6.564 4 7.01172 4.44772 7.01172 5C7.01172 5.55228 6.564 6 6.01172 6C5.45943 6 5.01172 5.55228 5.01172 5ZM9.01172 15C8.38172 15 8.03125 14.58 8.03125 13.95V8.01C8.03125 7.38 8.38172 7 9.01172 7C9.64172 7 10.0117 7.37 10.0117 8C10.5367 7.325 10.8567 7 12.0117 7C13.5117 7 15.0117 8.155 15.0117 10V14C15.0117 14.63 14.6417 15 14.0117 15C13.3817 15 13.0117 14.58 13.0117 13.95V10.5C13.0117 9.42 12.2291 9 11.5117 9C10.6417 9 10.0117 9.42 10.0117 10.5V13.935C10.0117 14.565 9.64172 15 9.01172 15Z" fill="white"/>
</svg>
