<svg width="121" height="121" viewBox="0 0 121 121" fill="none" xmlns="http://www.w3.org/2000/svg">
<path d="M109.641 21.125H105.891C105.891 16.1522 103.915 11.3831 100.399 7.86675C96.8826 4.35044 92.1134 2.375 87.1406 2.375C82.1678 2.375 77.3987 4.35044 73.8824 7.86675C70.3661 11.3831 68.3906 16.1522 68.3906 21.125H53.3906V17.375H59.0156C59.5129 17.375 59.9898 17.1775 60.3415 16.8258C60.6931 16.4742 60.8906 15.9973 60.8906 15.5V8C60.8906 6.50816 60.298 5.07742 59.2431 4.02252C58.1882 2.96763 56.7575 2.375 55.2656 2.375H29.0156C27.5238 2.375 26.093 2.96763 25.0381 4.02252C23.9833 5.07742 23.3906 6.50816 23.3906 8V21.125H12.1406C9.65513 21.128 7.2723 22.1167 5.51479 23.8742C3.75728 25.6317 2.7686 28.0145 2.76562 30.5V86.75C2.7686 89.2355 3.75728 91.6183 5.51479 93.3758C7.2723 95.1333 9.65513 96.122 12.1406 96.125H53.3906V103.625H42.1406C39.6551 103.628 37.2723 104.617 35.5148 106.374C33.7573 108.132 32.7686 110.515 32.7656 113V116.75C32.7656 117.247 32.9632 117.724 33.3148 118.076C33.6664 118.427 34.1433 118.625 34.6406 118.625H87.1406C87.6379 118.625 88.1148 118.427 88.4665 118.076C88.8181 117.724 89.0156 117.247 89.0156 116.75V113C89.0126 110.515 88.024 108.132 86.2665 106.374C84.5089 104.617 82.1261 103.628 79.6406 103.625H68.3906V96.125H109.641C112.126 96.122 114.509 95.1333 116.266 93.3758C118.024 91.6183 119.013 89.2355 119.016 86.75V30.5C119.013 28.0145 118.024 25.6317 116.266 23.8742C114.509 22.1167 112.126 21.128 109.641 21.125ZM87.1406 6.125C90.1073 6.125 93.0074 7.00473 95.4742 8.65296C97.9409 10.3012 99.8635 12.6439 100.999 15.3847C102.134 18.1256 102.431 21.1416 101.852 24.0514C101.274 26.9611 99.845 29.6338 97.7472 31.7316C95.6494 33.8294 92.9767 35.258 90.067 35.8368C87.1573 36.4156 84.1413 36.1185 81.4004 34.9832C78.6595 33.8479 76.3168 31.9253 74.6686 29.4586C73.0204 26.9918 72.1406 24.0917 72.1406 21.125C72.1451 17.1481 73.7269 13.3354 76.539 10.5233C79.351 7.71125 83.1637 6.12947 87.1406 6.125ZM53.3906 32.375C53.8879 32.375 54.3648 32.5725 54.7165 32.9242C55.0681 33.2758 55.2656 33.7527 55.2656 34.25V68C55.2656 68.4973 55.0681 68.9742 54.7165 69.3258C54.3648 69.6775 53.8879 69.875 53.3906 69.875H23.3906C22.8933 69.875 22.4164 69.6775 22.0648 69.3258C21.7132 68.9742 21.5156 68.4973 21.5156 68V34.25C21.5156 33.7527 21.7132 33.2758 22.0648 32.9242C22.4164 32.5725 22.8933 32.375 23.3906 32.375H53.3906ZM57.1406 8V13.625H53.3906V8C53.3906 7.50272 53.5882 7.02581 53.9398 6.67417C54.2914 6.32254 54.7683 6.125 55.2656 6.125C55.7629 6.125 56.2398 6.32254 56.5915 6.67417C56.9431 7.02581 57.1406 7.50272 57.1406 8ZM29.0156 6.125H49.9856C49.7636 6.72548 49.6468 7.3598 49.6406 8V28.625H27.1406V8C27.1406 7.50272 27.3382 7.02581 27.6898 6.67417C28.0414 6.32254 28.5183 6.125 29.0156 6.125ZM12.1406 24.875H23.3906V28.625C21.8988 28.625 20.468 29.2176 19.4131 30.2725C18.3583 31.3274 17.7656 32.7582 17.7656 34.25V68C17.7656 69.4918 18.3583 70.9226 19.4131 71.9775C20.468 73.0324 21.8988 73.625 23.3906 73.625H53.3906C54.8825 73.625 56.3132 73.0324 57.3681 71.9775C58.423 70.9226 59.0156 69.4918 59.0156 68V34.25C59.0156 32.7582 58.423 31.3274 57.3681 30.2725C56.3132 29.2176 54.8825 28.625 53.3906 28.625V24.875H68.7656C69.6263 29.1136 71.9259 32.9243 75.2747 35.6614C78.6235 38.3986 82.8155 39.8938 87.1406 39.8938C91.4657 39.8938 95.6578 38.3986 99.0066 35.6614C102.355 32.9243 104.655 29.1136 105.516 24.875H109.641C111.132 24.875 112.563 25.4676 113.618 26.5225C114.673 27.5774 115.266 29.0082 115.266 30.5V77.375H6.51562V30.5C6.51562 29.0082 7.10826 27.5774 8.16315 26.5225C9.21804 25.4676 10.6488 24.875 12.1406 24.875ZM85.2656 113V114.875H36.5156V113C36.5156 111.508 37.1083 110.077 38.1631 109.023C39.218 107.968 40.6488 107.375 42.1406 107.375H79.6406C81.1325 107.375 82.5632 107.968 83.6181 109.023C84.673 110.077 85.2656 111.508 85.2656 113ZM64.6406 103.625H57.1406V96.125H64.6406V103.625ZM109.641 92.375H12.1406C10.6488 92.375 9.21804 91.7824 8.16315 90.7275C7.10826 89.6726 6.51562 88.2418 6.51562 86.75V81.125H115.266V86.75C115.266 88.2418 114.673 89.6726 113.618 90.7275C112.563 91.7824 111.132 92.375 109.641 92.375Z" fill="#9A92B9"/>
<path d="M87.1406 26.75C86.6433 26.75 86.1664 26.5525 85.8148 26.2008C85.4632 25.8492 85.2656 25.3723 85.2656 24.875H81.5156C81.5204 26.0342 81.8833 27.1637 82.5545 28.1088C83.2258 29.0539 84.1727 29.7686 85.2656 30.155V32.375H89.0156V30.155C90.2657 29.7147 91.3195 28.8462 91.9906 27.7034C92.6616 26.5605 92.9066 25.2171 92.682 23.9109C92.4574 22.6048 91.7778 21.4203 90.7636 20.5672C89.7493 19.7141 88.4659 19.2475 87.1406 19.25C86.7698 19.25 86.4073 19.14 86.0989 18.934C85.7906 18.728 85.5503 18.4351 85.4084 18.0925C85.2664 17.7499 85.2293 17.3729 85.3017 17.0092C85.374 16.6455 85.5526 16.3114 85.8148 16.0492C86.077 15.787 86.4111 15.6084 86.7748 15.536C87.1385 15.4637 87.5155 15.5008 87.8582 15.6427C88.2008 15.7846 88.4936 16.025 88.6996 16.3333C88.9057 16.6416 89.0156 17.0042 89.0156 17.375H92.7656C92.7608 16.2158 92.398 15.0863 91.7267 14.1412C91.0555 13.1961 90.1086 12.4814 89.0156 12.095V9.875H85.2656V12.095C84.0156 12.5353 82.9617 13.4038 82.2907 14.5466C81.6196 15.6895 81.3747 17.0329 81.5993 18.3391C81.8239 19.6452 82.5034 20.8297 83.5177 21.6828C84.5319 22.5359 85.8153 23.0025 87.1406 23C87.6379 23 88.1148 23.1975 88.4665 23.5492C88.8181 23.9008 89.0156 24.3777 89.0156 24.875C89.0156 25.3723 88.8181 25.8492 88.4665 26.2008C88.1148 26.5525 87.6379 26.75 87.1406 26.75Z" fill="#9A92B9"/>
<path d="M27.1406 51.125H49.6406C50.1379 51.125 50.6148 50.9275 50.9665 50.5758C51.3181 50.2242 51.5156 49.7473 51.5156 49.25V38C51.5156 37.5027 51.3181 37.0258 50.9665 36.6742C50.6148 36.3225 50.1379 36.125 49.6406 36.125H27.1406C26.6433 36.125 26.1664 36.3225 25.8148 36.6742C25.4632 37.0258 25.2656 37.5027 25.2656 38V49.25C25.2656 49.7473 25.4632 50.2242 25.8148 50.5758C26.1664 50.9275 26.6433 51.125 27.1406 51.125ZM29.0156 39.875H47.7656V47.375H29.0156V39.875Z" fill="#9A92B9"/>
<path d="M28.8906 55.5H32.6406V59.25H28.8906V55.5Z" fill="#9A92B9"/>
<path d="M37.3906 55.5H41.1406V59.25H37.3906V55.5Z" fill="#9A92B9"/>
<path d="M44.8906 55.5H48.6406V59.25H44.8906V55.5Z" fill="#9A92B9"/>
<path d="M28.8906 63H32.6406V66.75H28.8906V63Z" fill="#9A92B9"/>
<path d="M37.3906 63H41.1406V66.75H37.3906V63Z" fill="#9A92B9"/>
<path d="M44.8906 63H48.6406V66.75H44.8906V63Z" fill="#8A8AA7"/>
<path d="M68.3906 73.625H105.891C107.382 73.625 108.813 73.0324 109.868 71.9775C110.923 70.9226 111.516 69.4918 111.516 68V49.25C111.516 47.7582 110.923 46.3274 109.868 45.2725C108.813 44.2176 107.382 43.625 105.891 43.625H68.3906C66.8988 43.625 65.468 44.2176 64.4132 45.2725C63.3583 46.3274 62.7656 47.7582 62.7656 49.25V68C62.7656 69.4918 63.3583 70.9226 64.4132 71.9775C65.468 73.0324 66.8988 73.625 68.3906 73.625ZM66.5156 49.25C66.5156 48.7527 66.7132 48.2758 67.0648 47.9242C67.4164 47.5725 67.8933 47.375 68.3906 47.375H105.891C106.388 47.375 106.865 47.5725 107.216 47.9242C107.568 48.2758 107.766 48.7527 107.766 49.25V68C107.766 68.4973 107.568 68.9742 107.216 69.3258C106.865 69.6775 106.388 69.875 105.891 69.875H68.3906C67.8933 69.875 67.4164 69.6775 67.0648 69.3258C66.7132 68.9742 66.5156 68.4973 66.5156 68V49.25Z" fill="#8A8AA7"/>
<path d="M69.8906 56.5H103.641V60.25H69.8906V56.5Z" fill="#8A8AA7"/>
</svg>
