<svg width="121" height="121" viewBox="0 0 121 121" fill="none" xmlns="http://www.w3.org/2000/svg">
<path d="M75.3652 45.5H67.8652C67.368 45.5 66.891 45.6975 66.5394 46.0492C66.1878 46.4008 65.9902 46.8777 65.9902 47.375V54.875C65.9902 55.3723 66.1878 55.8492 66.5394 56.2008C66.891 56.5525 67.368 56.75 67.8652 56.75H75.3652C75.8625 56.75 76.3394 56.5525 76.6911 56.2008C77.0427 55.8492 77.2402 55.3723 77.2402 54.875V47.375C77.2402 46.8777 77.0427 46.4008 76.6911 46.0492C76.3394 45.6975 75.8625 45.5 75.3652 45.5ZM73.4902 53H69.7402V49.25H73.4902V53Z" fill="#9A92B9"/>
<path d="M60.3652 45.5H52.8652C52.368 45.5 51.891 45.6975 51.5394 46.0492C51.1878 46.4008 50.9902 46.8777 50.9902 47.375V54.875C50.9902 55.3723 51.1878 55.8492 51.5394 56.2008C51.891 56.5525 52.368 56.75 52.8652 56.75H60.3652C60.8625 56.75 61.3394 56.5525 61.6911 56.2008C62.0427 55.8492 62.2402 55.3723 62.2402 54.875V47.375C62.2402 46.8777 62.0427 46.4008 61.6911 46.0492C61.3394 45.6975 60.8625 45.5 60.3652 45.5ZM58.4902 53H54.7402V49.25H58.4902V53Z" fill="#9A92B9"/>
<path d="M45.3652 45.5H37.8652C37.368 45.5 36.891 45.6975 36.5394 46.0492C36.1878 46.4008 35.9902 46.8777 35.9902 47.375V54.875C35.9902 55.3723 36.1878 55.8492 36.5394 56.2008C36.891 56.5525 37.368 56.75 37.8652 56.75H45.3652C45.8625 56.75 46.3394 56.5525 46.6911 56.2008C47.0427 55.8492 47.2402 55.3723 47.2402 54.875V47.375C47.2402 46.8777 47.0427 46.4008 46.6911 46.0492C46.3394 45.6975 45.8625 45.5 45.3652 45.5ZM43.4902 53H39.7402V49.25H43.4902V53Z" fill="#9A92B9"/>
<path d="M75.3652 60.5H67.8652C67.368 60.5 66.891 60.6975 66.5394 61.0492C66.1878 61.4008 65.9902 61.8777 65.9902 62.375V69.875C65.9902 70.3723 66.1878 70.8492 66.5394 71.2008C66.891 71.5525 67.368 71.75 67.8652 71.75H75.3652C75.8625 71.75 76.3394 71.5525 76.6911 71.2008C77.0427 70.8492 77.2402 70.3723 77.2402 69.875V62.375C77.2402 61.8777 77.0427 61.4008 76.6911 61.0492C76.3394 60.6975 75.8625 60.5 75.3652 60.5ZM73.4902 68H69.7402V64.25H73.4902V68Z" fill="#9A92B9"/>
<path d="M60.3652 60.5H52.8652C52.368 60.5 51.891 60.6975 51.5394 61.0492C51.1878 61.4008 50.9902 61.8777 50.9902 62.375V69.875C50.9902 70.3723 51.1878 70.8492 51.5394 71.2008C51.891 71.5525 52.368 71.75 52.8652 71.75H60.3652C60.8625 71.75 61.3394 71.5525 61.6911 71.2008C62.0427 70.8492 62.2402 70.3723 62.2402 69.875V62.375C62.2402 61.8777 62.0427 61.4008 61.6911 61.0492C61.3394 60.6975 60.8625 60.5 60.3652 60.5ZM58.4902 68H54.7402V64.25H58.4902V68Z" fill="#9A92B9"/>
<path d="M45.3652 60.5H37.8652C37.368 60.5 36.891 60.6975 36.5394 61.0492C36.1878 61.4008 35.9902 61.8777 35.9902 62.375V69.875C35.9902 70.3723 36.1878 70.8492 36.5394 71.2008C36.891 71.5525 37.368 71.75 37.8652 71.75H45.3652C45.8625 71.75 46.3394 71.5525 46.6911 71.2008C47.0427 70.8492 47.2402 70.3723 47.2402 69.875V62.375C47.2402 61.8777 47.0427 61.4008 46.6911 61.0492C46.3394 60.6975 45.8625 60.5 45.3652 60.5ZM43.4902 68H39.7402V64.25H43.4902V68Z" fill="#9A92B9"/>
<path d="M60.3652 30.5H52.8652C52.368 30.5 51.891 30.6975 51.5394 31.0492C51.1878 31.4008 50.9902 31.8777 50.9902 32.375V39.875C50.9902 40.3723 51.1878 40.8492 51.5394 41.2008C51.891 41.5525 52.368 41.75 52.8652 41.75H60.3652C60.8625 41.75 61.3394 41.5525 61.6911 41.2008C62.0427 40.8492 62.2402 40.3723 62.2402 39.875V32.375C62.2402 31.8777 62.0427 31.4008 61.6911 31.0492C61.3394 30.6975 60.8625 30.5 60.3652 30.5ZM58.4902 38H54.7402V34.25H58.4902V38Z" fill="#9A92B9"/>
<path d="M75.3652 30.5H67.8652C67.368 30.5 66.891 30.6975 66.5394 31.0492C66.1878 31.4008 65.9902 31.8777 65.9902 32.375V39.875C65.9902 40.3723 66.1878 40.8492 66.5394 41.2008C66.891 41.5525 67.368 41.75 67.8652 41.75H75.3652C75.8625 41.75 76.3394 41.5525 76.6911 41.2008C77.0427 40.8492 77.2402 40.3723 77.2402 39.875V32.375C77.2402 31.8777 77.0427 31.4008 76.6911 31.0492C76.3394 30.6975 75.8625 30.5 75.3652 30.5ZM73.4902 38H69.7402V34.25H73.4902V38Z" fill="#9A92B9"/>
<path d="M45.3652 30.5H37.8652C37.368 30.5 36.891 30.6975 36.5394 31.0492C36.1878 31.4008 35.9902 31.8777 35.9902 32.375V39.875C35.9902 40.3723 36.1878 40.8492 36.5394 41.2008C36.891 41.5525 37.368 41.75 37.8652 41.75H45.3652C45.8625 41.75 46.3394 41.5525 46.6911 41.2008C47.0427 40.8492 47.2402 40.3723 47.2402 39.875V32.375C47.2402 31.8777 47.0427 31.4008 46.6911 31.0492C46.3394 30.6975 45.8625 30.5 45.3652 30.5ZM43.4902 38H39.7402V34.25H43.4902V38Z" fill="#9A92B9"/>
<path d="M60.3652 15.5H52.8652C52.368 15.5 51.891 15.6975 51.5394 16.0492C51.1878 16.4008 50.9902 16.8777 50.9902 17.375V24.875C50.9902 25.3723 51.1878 25.8492 51.5394 26.2008C51.891 26.5525 52.368 26.75 52.8652 26.75H60.3652C60.8625 26.75 61.3394 26.5525 61.6911 26.2008C62.0427 25.8492 62.2402 25.3723 62.2402 24.875V17.375C62.2402 16.8777 62.0427 16.4008 61.6911 16.0492C61.3394 15.6975 60.8625 15.5 60.3652 15.5ZM58.4902 23H54.7402V19.25H58.4902V23Z" fill="#9A92B9"/>
<path d="M75.3652 15.5H67.8652C67.368 15.5 66.891 15.6975 66.5394 16.0492C66.1878 16.4008 65.9902 16.8777 65.9902 17.375V24.875C65.9902 25.3723 66.1878 25.8492 66.5394 26.2008C66.891 26.5525 67.368 26.75 67.8652 26.75H75.3652C75.8625 26.75 76.3394 26.5525 76.6911 26.2008C77.0427 25.8492 77.2402 25.3723 77.2402 24.875V17.375C77.2402 16.8777 77.0427 16.4008 76.6911 16.0492C76.3394 15.6975 75.8625 15.5 75.3652 15.5ZM73.4902 23H69.7402V19.25H73.4902V23Z" fill="#9A92B9"/>
<path d="M45.3652 15.5H37.8652C37.368 15.5 36.891 15.6975 36.5394 16.0492C36.1878 16.4008 35.9902 16.8777 35.9902 17.375V24.875C35.9902 25.3723 36.1878 25.8492 36.5394 26.2008C36.891 26.5525 37.368 26.75 37.8652 26.75H45.3652C45.8625 26.75 46.3394 26.5525 46.6911 26.2008C47.0427 25.8492 47.2402 25.3723 47.2402 24.875V17.375C47.2402 16.8777 47.0427 16.4008 46.6911 16.0492C46.3394 15.6975 45.8625 15.5 45.3652 15.5ZM43.4902 23H39.7402V19.25H43.4902V23Z" fill="#9A92B9"/>
<path d="M20.9902 60.5H13.4902C12.993 60.5 12.516 60.6975 12.1644 61.0492C11.8128 61.4008 11.6152 61.8777 11.6152 62.375V69.875C11.6152 70.3723 11.8128 70.8492 12.1644 71.2008C12.516 71.5525 12.993 71.75 13.4902 71.75H20.9902C21.4875 71.75 21.9644 71.5525 22.3161 71.2008C22.6677 70.8492 22.8652 70.3723 22.8652 69.875V62.375C22.8652 61.8777 22.6677 61.4008 22.3161 61.0492C21.9644 60.6975 21.4875 60.5 20.9902 60.5ZM19.1152 68H15.3652V64.25H19.1152V68Z" fill="#9A92B9"/>
<path d="M20.9902 75.5H13.4902C12.993 75.5 12.516 75.6975 12.1644 76.0492C11.8128 76.4008 11.6152 76.8777 11.6152 77.375V84.875C11.6152 85.3723 11.8128 85.8492 12.1644 86.2008C12.516 86.5525 12.993 86.75 13.4902 86.75H20.9902C21.4875 86.75 21.9644 86.5525 22.3161 86.2008C22.6677 85.8492 22.8652 85.3723 22.8652 84.875V77.375C22.8652 76.8777 22.6677 76.4008 22.3161 76.0492C21.9644 75.6975 21.4875 75.5 20.9902 75.5ZM19.1152 83H15.3652V79.25H19.1152V83Z" fill="#9A92B9"/>
<path d="M20.9902 90.5H13.4902C12.993 90.5 12.516 90.6975 12.1644 91.0492C11.8128 91.4008 11.6152 91.8777 11.6152 92.375V99.875C11.6152 100.372 11.8128 100.849 12.1644 101.201C12.516 101.552 12.993 101.75 13.4902 101.75H20.9902C21.4875 101.75 21.9644 101.552 22.3161 101.201C22.6677 100.849 22.8652 100.372 22.8652 99.875V92.375C22.8652 91.8777 22.6677 91.4008 22.3161 91.0492C21.9644 90.6975 21.4875 90.5 20.9902 90.5ZM19.1152 98H15.3652V94.25H19.1152V98Z" fill="#9A92B9"/>
<path d="M20.9902 45.5H13.4902C12.993 45.5 12.516 45.6975 12.1644 46.0492C11.8128 46.4008 11.6152 46.8777 11.6152 47.375V54.875C11.6152 55.3723 11.8128 55.8492 12.1644 56.2008C12.516 56.5525 12.993 56.75 13.4902 56.75H20.9902C21.4875 56.75 21.9644 56.5525 22.3161 56.2008C22.6677 55.8492 22.8652 55.3723 22.8652 54.875V47.375C22.8652 46.8777 22.6677 46.4008 22.3161 46.0492C21.9644 45.6975 21.4875 45.5 20.9902 45.5ZM19.1152 53H15.3652V49.25H19.1152V53Z" fill="#9A92B9"/>
<path d="M116.615 113H105.365V101.6C107.836 101.247 110.155 100.195 112.048 98.5691C113.942 96.9431 115.332 94.8102 116.055 92.4212C116.777 90.0322 116.803 87.4866 116.128 85.0835C115.454 82.6805 114.107 80.5201 112.247 78.8563C112.929 77.071 113.05 75.1201 112.594 73.2641C112.139 71.4081 111.128 69.7352 109.697 68.4688C110.462 67.3411 110.905 66.0264 110.979 64.6657C111.053 63.305 110.755 61.9499 110.117 60.7458C109.479 59.5418 108.525 58.5343 107.358 57.8317C106.19 57.129 104.853 56.7578 103.49 56.7578C102.128 56.7578 100.791 57.129 99.6232 57.8317C98.4556 58.5343 97.5015 59.5418 96.8634 60.7458C96.2253 61.9499 95.9273 63.305 96.0015 64.6657C96.0756 66.0264 96.519 67.3411 97.2841 68.4688C95.8529 69.7352 94.842 71.4081 94.3864 73.2641C93.9307 75.1201 94.052 77.071 94.7341 78.8563C92.8736 80.5201 91.5269 82.6805 90.8523 85.0835C90.1778 87.4866 90.2034 90.0322 90.9262 92.4212C91.649 94.8102 93.0389 96.9431 94.9325 98.5691C96.8261 100.195 99.1446 101.247 101.615 101.6V113H86.6154V6.125C86.6154 5.62772 86.4178 5.15081 86.0662 4.79917C85.7146 4.44754 85.2376 4.25 84.7404 4.25H28.4904C27.9931 4.25 27.5162 4.44754 27.1645 4.79917C26.8129 5.15081 26.6154 5.62772 26.6154 6.125V27.4625L5.14661 38.2063C4.8342 38.358 4.57137 38.5955 4.38878 38.891C4.2062 39.1864 4.11137 39.5277 4.11536 39.875V114.875C4.11536 115.372 4.3129 115.849 4.66453 116.201C5.01616 116.552 5.49307 116.75 5.99036 116.75H116.615C117.113 116.75 117.59 116.552 117.941 116.201C118.293 115.849 118.49 115.372 118.49 114.875C118.49 114.378 118.293 113.901 117.941 113.549C117.59 113.198 117.113 113 116.615 113ZM26.6154 113H7.86536V41.0375L26.6154 31.6625V113ZM54.7404 113H41.6154V90.5H54.7404V113ZM37.8654 86.75V83H75.3654V86.75H37.8654ZM71.6154 113H58.4904V90.5H71.6154V113ZM82.8654 113H75.3654V90.5H77.2404C77.7376 90.5 78.2146 90.3025 78.5662 89.9508C78.9178 89.5992 79.1154 89.1223 79.1154 88.625V81.125C79.1154 80.6277 78.9178 80.1508 78.5662 79.7992C78.2146 79.4475 77.7376 79.25 77.2404 79.25H35.9904C35.4931 79.25 35.0162 79.4475 34.6645 79.7992C34.3129 80.1508 34.1154 80.6277 34.1154 81.125V88.625C34.1154 89.1223 34.3129 89.5992 34.6645 89.9508C35.0162 90.3025 35.4931 90.5 35.9904 90.5H37.8654V113H30.3654V8H82.8654V113ZM94.1154 88.625C94.1129 87.11 94.4785 85.6172 95.1807 84.2748C95.883 82.9324 96.9008 81.7807 98.1466 80.9187C98.537 80.6454 98.8099 80.2348 98.9108 79.769C99.0116 79.3032 98.9329 78.8165 98.6904 78.4062C98.2831 77.7435 98.019 77.0028 97.915 76.2319C97.8111 75.461 97.8696 74.6768 98.0868 73.9298C98.304 73.1828 98.6751 72.4896 99.1762 71.8946C99.6774 71.2996 100.297 70.816 100.997 70.475C101.289 70.3304 101.539 70.113 101.723 69.8437C101.907 69.5744 102.018 69.2624 102.047 68.9375C102.074 68.6146 102.016 68.2902 101.878 67.9971C101.739 67.704 101.526 67.4528 101.259 67.2688C100.784 66.9226 100.399 66.4681 100.134 65.9431C99.8703 65.4181 99.7352 64.8377 99.7404 64.25C99.7404 63.2554 100.135 62.3016 100.839 61.5983C101.542 60.8951 102.496 60.5 103.49 60.5C104.485 60.5 105.439 60.8951 106.142 61.5983C106.845 62.3016 107.24 63.2554 107.24 64.25C107.245 64.8377 107.11 65.4181 106.846 65.9431C106.582 66.4681 106.197 66.9226 105.722 67.2688C105.455 67.4528 105.242 67.704 105.103 67.9971C104.965 68.2902 104.907 68.6146 104.934 68.9375C104.962 69.2624 105.074 69.5744 105.258 69.8437C105.442 70.113 105.692 70.3304 105.984 70.475C106.683 70.816 107.303 71.2996 107.804 71.8946C108.306 72.4896 108.677 73.1828 108.894 73.9298C109.111 74.6768 109.17 75.461 109.066 76.2319C108.962 77.0028 108.698 77.7435 108.29 78.4062C108.048 78.8165 107.969 79.3032 108.07 79.769C108.171 80.2348 108.444 80.6454 108.834 80.9187C110.159 81.8379 111.225 83.0833 111.928 84.5346C112.631 85.9859 112.947 87.5939 112.847 89.2034C112.747 90.8129 112.234 92.3693 111.356 93.7223C110.479 95.0754 109.267 96.1792 107.839 96.9272C106.41 97.6751 104.813 98.042 103.201 97.9922C101.589 97.9424 100.017 97.4778 98.6377 96.6431C97.258 95.8084 96.1169 94.6319 95.3247 93.2273C94.5324 91.8227 94.1159 90.2376 94.1154 88.625Z" fill="#9A92B9"/>
<path d="M101.306 6.55996C100.796 7.06996 100.746 7.87996 101.206 8.42996C105.046 13.1 105.046 19.88 101.216 24.56C100.756 25.12 100.796 25.94 101.306 26.45C101.896 27.04 102.876 27 103.406 26.35C108.076 20.64 108.076 12.38 103.406 6.65996C102.886 6.00996 101.906 5.95996 101.306 6.55996ZM93.5457 14.32L92.0757 15.79C91.6857 16.18 91.6857 16.81 92.0757 17.2L93.5457 18.67C94.0157 19.14 94.8257 19.04 95.1357 18.44C95.4463 17.8351 95.6083 17.1649 95.6083 16.485C95.6083 15.805 95.4463 15.1348 95.1357 14.53C94.8257 13.96 94.0157 13.85 93.5457 14.32ZM97.2757 10.59C96.7857 11.08 96.7357 11.85 97.1457 12.42C97.9898 13.613 98.4431 15.0385 98.4431 16.5C98.4431 17.9614 97.9898 19.3869 97.1457 20.58C96.7457 21.15 96.7857 21.92 97.2757 22.41L97.2857 22.42C97.8857 23.02 98.9057 22.98 99.3957 22.29C101.886 18.85 101.886 14.16 99.3957 10.71C98.8957 10.02 97.8857 9.97996 97.2757 10.59Z" fill="#9A92B9"/>
</svg>
